<svg xmlns="http://www.w3.org/2000/svg" xmlns:xlink="http://www.w3.org/1999/xlink" width="1500" zoomAndPan="magnify" viewBox="0 0 1125 1124.99995" height="1500" preserveAspectRatio="xMidYMid meet" version="1.0"><defs><g/><clipPath id="913cf15382"><path d="M 665.277344 346.605469 L 1103 346.605469 L 1103 750 L 665.277344 750 Z M 665.277344 346.605469 " clip-rule="nonzero"/></clipPath></defs><g clip-path="url(#913cf15382)"><path fill="#8e1efc" d="M 839.433594 358.546875 C 853.5 350.40625 868.890625 346.605469 884.105469 346.648438 C 899.324219 346.605469 914.714844 350.40625 928.78125 358.546875 C 937.894531 363.8125 945.722656 370.445312 952.179688 378.097656 L 952.402344 378.363281 C 952.625 378.628906 952.84375 378.894531 953.066406 379.160156 C 956.117188 382.875 958.949219 386.898438 961.425781 391.234375 L 1090.71875 615.140625 C 1115.269531 657.695312 1100.582031 712.585938 1058.03125 737.179688 C 1015.480469 761.730469 960.585938 747 935.992188 704.449219 L 914.449219 667.113281 C 896.402344 635.886719 873.535156 586.742188 849.960938 563.433594 C 824.835938 538.664062 790.332031 523.359375 752.292969 523.359375 C 744.507812 523.359375 736.855469 524.023438 729.382812 525.261719 L 797.675781 406.980469 C 803.074219 397.605469 808.246094 387.519531 815.148438 379.160156 C 815.371094 378.894531 815.589844 378.628906 815.8125 378.363281 L 816.03125 378.097656 C 822.492188 370.445312 830.320312 363.8125 839.433594 358.546875 Z M 752.292969 575.421875 C 800.332031 575.421875 839.300781 614.390625 839.300781 662.425781 C 839.300781 710.507812 800.332031 749.433594 752.292969 749.433594 C 704.257812 749.433594 665.289062 710.507812 665.289062 662.425781 C 665.289062 614.390625 704.257812 575.421875 752.292969 575.421875 Z M 752.292969 575.421875 " fill-opacity="1" fill-rule="evenodd"/></g><g fill="#ffffff" fill-opacity="1"><g transform="translate(813.135964, 482.296951)"><g><path d="M 76.96875 2.453125 C 67.320312 2.453125 58.8125 0.5 51.4375 -3.40625 C 44.070312 -7.320312 38.429688 -12.738281 34.515625 -19.65625 C 30.609375 -26.570312 28.65625 -34.394531 28.65625 -43.125 C 28.65625 -51.851562 30.609375 -59.675781 34.515625 -66.59375 C 38.429688 -73.507812 44.070312 -78.96875 51.4375 -82.96875 C 58.8125 -86.976562 67.320312 -88.984375 76.96875 -88.984375 C 86.789062 -88.984375 95.382812 -87.023438 102.75 -83.109375 C 110.125 -79.203125 115.765625 -73.789062 119.671875 -66.875 C 123.585938 -59.957031 125.546875 -52.128906 125.546875 -43.390625 C 125.546875 -30.109375 121.132812 -19.144531 112.3125 -10.5 C 103.488281 -1.863281 91.707031 2.453125 76.96875 2.453125 Z M 76.96875 2.453125 "/></g></g></g></svg>